<?xml version="1.0" encoding="UTF-8" standalone="no"?>
<svg
   height="120"
   viewBox="0 -960 4800 4800"
   width="120"
   version="1.1"
   id="svg4"
   sodipodi:docname="medcab_120x120.svg"
   inkscape:version="1.1.2 (0a00cf5339, 2022-02-04)"
   xmlns:inkscape="http://www.inkscape.org/namespaces/inkscape"
   xmlns:sodipodi="http://sodipodi.sourceforge.net/DTD/sodipodi-0.dtd"
   xmlns="http://www.w3.org/2000/svg"
   xmlns:svg="http://www.w3.org/2000/svg">
  <defs
     id="defs8" />
  <sodipodi:namedview
     id="namedview6"
     pagecolor="#ffffff"
     bordercolor="#666666"
     borderopacity="1.0"
     inkscape:pageshadow="2"
     inkscape:pageopacity="0"
     inkscape:pagecheckerboard="0"
     showgrid="false"
     showborder="true"
     inkscape:zoom="1.8489583"
     inkscape:cx="104.11268"
     inkscape:cy="25.419719"
     inkscape:window-width="1920"
     inkscape:window-height="1003"
     inkscape:window-x="0"
     inkscape:window-y="40"
     inkscape:window-maximized="1"
     inkscape:current-layer="svg4" />
  <path
     d="m 801.99751,3437.5031 q -164.794,0 -282.14731,-117.3533 Q 402.49689,3202.7965 402.49689,3038.0025 V 640.99876 q 0,-164.79401 117.35331,-282.14731 117.35331,-117.35331 282.14731,-117.35331 h 799.00129 v -399.50063 q 0,-164.794 117.3533,-282.14731 117.3533,-117.35331 282.1473,-117.35331 h 799.0012 q 164.794,0 282.1473,117.35331 117.3533,117.35331 117.3533,282.14731 v 399.50063 h 799.0013 q 164.794,0 282.1473,117.35331 117.3533,117.3533 117.3533,282.14731 V 3038.0025 q 0,164.794 -117.3533,282.1473 -117.3533,117.3533 -282.1473,117.3533 z m 0,-399.5006 H 3998.0025 V 640.99876 H 801.99751 Z M 2000.4994,241.49814 h 799.0012 V -158.00249 H 2000.4994 Z M 801.99751,3038.0025 V 640.99876 Z M 2200.2497,2039.2509 v 599.251 h 399.5006 v -599.251 h 599.2509 v -399.5006 h -599.2509 v -599.2509 h -399.5006 v 599.2509 h -599.2509 v 399.5006 z"
     id="path2"
     style="fill:#ff0000;stroke:#ff0000;stroke-width:4.99376" />
</svg>
