<?xml version="1.0" encoding="UTF-8" standalone="no"?>
<svg
   height="512"
   viewBox="0 -960 20480 20480"
   width="512"
   version="1.1"
   id="svg4"
   sodipodi:docname="medical_services_FILL0_wght400_GRAD0_opsz512.svg"
   inkscape:version="1.1.2 (0a00cf5339, 2022-02-04)"
   inkscape:export-filename="/home/ss/HPrjs/medcab/static/img/medical_services_FILL0_wght400_GRAD0_opsz512.png"
   inkscape:export-xdpi="500"
   inkscape:export-ydpi="500"
   xmlns:inkscape="http://www.inkscape.org/namespaces/inkscape"
   xmlns:sodipodi="http://sodipodi.sourceforge.net/DTD/sodipodi-0.dtd"
   xmlns="http://www.w3.org/2000/svg"
   xmlns:svg="http://www.w3.org/2000/svg">
  <defs
     id="defs8" />
  <sodipodi:namedview
     id="namedview6"
     pagecolor="#ffffff"
     bordercolor="#666666"
     borderopacity="1.0"
     inkscape:pageshadow="2"
     inkscape:pageopacity="1"
     inkscape:pagecheckerboard="0"
     showgrid="false"
     showborder="true"
     inkscape:zoom="0.92447916"
     inkscape:cx="236.3493"
     inkscape:cy="162.25352"
     inkscape:window-width="1920"
     inkscape:window-height="1003"
     inkscape:window-x="0"
     inkscape:window-y="40"
     inkscape:window-maximized="1"
     inkscape:current-layer="svg4"
     inkscape:showpageshadow="false" />
  <path
     d="m 4135.6316,16910.462 q -629.513,0 -1077.8029,-448.289 -448.2904,-448.289 -448.2904,-1077.802 V 6227.8155 q 0,-629.5132 448.2904,-1077.803 448.2899,-448.2896 1077.8029,-448.2896 H 7187.8153 V 3175.6305 q 0,-629.5132 448.2898,-1077.8029 448.2898,-448.2897 1077.8029,-448.2897 h 3052.186 q 629.513,0 1077.803,448.2897 448.289,448.2897 448.289,1077.8029 v 1526.0924 h 3052.186 q 629.513,0 1077.801,448.2896 448.289,448.2898 448.289,1077.803 v 9156.5555 q 0,629.513 -448.289,1077.802 -448.288,448.289 -1077.801,448.289 z m 0,-1526.091 H 16344.372 V 6227.8155 H 4135.6316 Z M 8713.908,4701.7229 h 3052.186 V 3175.6305 H 8713.908 Z M 4135.6316,15384.371 V 6227.8155 Z m 5341.3237,-3815.232 v 2289.139 h 1526.0927 v -2289.139 h 2289.138 V 10043.047 H 11003.048 V 7753.9079 H 9476.9553 v 2289.1391 h -2289.14 v 1526.092 z"
     id="path2"
     style="fill:#ff0000;stroke:#ff0000;stroke-width:19.0762" />
</svg>
