<?xml version="1.0" encoding="UTF-8" standalone="no"?>
<svg
   height="24"
   viewBox="0 -960 960 960"
   width="24"
   version="1.1"
   id="svg4"
   sodipodi:docname="medical_services_FILL0_wght400_GRAD0_opsz24.svg"
   inkscape:version="1.1.2 (0a00cf5339, 2022-02-04)"
   xmlns:inkscape="http://www.inkscape.org/namespaces/inkscape"
   xmlns:sodipodi="http://sodipodi.sourceforge.net/DTD/sodipodi-0.dtd"
   xmlns="http://www.w3.org/2000/svg"
   xmlns:svg="http://www.w3.org/2000/svg">
  <defs
     id="defs8" />
  <sodipodi:namedview
     id="namedview6"
     pagecolor="#ffffff"
     bordercolor="#666666"
     borderopacity="1.0"
     inkscape:pageshadow="2"
     inkscape:pageopacity="0"
     inkscape:pagecheckerboard="0"
     showgrid="false"
     showborder="true"
     inkscape:zoom="29.583333"
     inkscape:cx="11.983099"
     inkscape:cy="12"
     inkscape:window-width="1920"
     inkscape:window-height="1003"
     inkscape:window-x="0"
     inkscape:window-y="40"
     inkscape:window-maximized="1"
     inkscape:current-layer="svg4" />
  <path
     d="M160-80q-33 0-56.5-23.5T80-160v-480q0-33 23.5-56.5T160-720h160v-80q0-33 23.5-56.5T400-880h160q33 0 56.5 23.5T640-800v80h160q33 0 56.5 23.5T880-640v480q0 33-23.5 56.5T800-80H160Zm0-80h640v-480H160v480Zm240-560h160v-80H400v80ZM160-160v-480 480Zm280-200v120h80v-120h120v-80H520v-120h-80v120H320v80h120Z"
     id="path2"
     style="stroke:#ff0000;fill:#ff0000" />
</svg>
